<svg width="996" height="256" viewBox="0 0 996 256" fill="none" xmlns="http://www.w3.org/2000/svg">
<g clip-path="url(#clip0_1_54)">
<g clip-path="url(#clip1_1_54)">
<g clip-path="url(#clip2_1_54)">
<g clip-path="url(#clip3_1_54)">
<path d="M261.878 105.15C261.878 102.299 262.4 99.6364 263.443 97.1629C264.487 94.6894 266.016 92.5487 268.031 90.7408C270.036 88.9239 272.496 87.5027 275.411 86.4773C278.316 85.443 281.635 84.9258 285.368 84.9258C286.996 84.9258 288.633 85.0247 290.279 85.2226C291.925 85.4205 293.512 85.6993 295.041 86.0591C296.561 86.4189 297.991 86.8461 299.332 87.3408C300.672 87.8355 301.837 88.3797 302.826 88.9733L298.32 96.3264C296.188 95.337 294.173 94.6084 292.275 94.1407C290.369 93.682 288.439 93.4526 286.487 93.4526C284.248 93.4526 282.237 93.7449 280.457 94.3296C278.685 94.9142 277.178 95.7282 275.937 96.7716C274.696 97.815 273.751 99.0428 273.103 100.455C272.456 101.867 272.132 103.41 272.132 105.083C272.132 106.756 272.478 108.298 273.171 109.71C273.855 111.122 274.83 112.341 276.099 113.367C277.358 114.392 278.883 115.193 280.672 115.768C282.462 116.353 284.455 116.645 286.649 116.645C289.069 116.645 291.349 116.303 293.49 115.62C295.63 114.945 297.623 114.037 299.467 112.894L303.973 120.234C302.813 120.936 301.553 121.588 300.195 122.19C298.828 122.793 297.371 123.315 295.824 123.755C294.277 124.196 292.653 124.542 290.953 124.794C289.253 125.046 287.49 125.172 285.664 125.172C281.95 125.172 278.622 124.668 275.68 123.661C272.739 122.653 270.248 121.255 268.206 119.465C266.164 117.675 264.599 115.561 263.511 113.124C262.422 110.686 261.878 108.028 261.878 105.15ZM312.149 105.056C312.149 102.267 312.711 99.6544 313.835 97.2169C314.969 94.7793 316.583 92.6476 318.679 90.8217C320.775 88.9958 323.311 87.5567 326.288 86.5043C329.266 85.452 332.612 84.9258 336.326 84.9258C340.032 84.9258 343.374 85.452 346.351 86.5043C349.328 87.5567 351.864 88.9958 353.96 90.8217C356.056 92.6476 357.67 94.7793 358.804 97.2169C359.937 99.6544 360.504 102.267 360.504 105.056C360.504 107.844 359.937 110.457 358.804 112.894C357.67 115.332 356.056 117.459 353.96 119.276C351.864 121.102 349.328 122.541 346.351 123.593C343.374 124.646 340.032 125.172 336.326 125.172C332.612 125.172 329.266 124.646 326.288 123.593C323.311 122.541 320.775 121.102 318.679 119.276C316.583 117.459 314.969 115.332 313.835 112.894C312.711 110.457 312.149 107.844 312.149 105.056ZM322.389 105.056C322.389 106.612 322.704 108.087 323.334 109.481C323.954 110.875 324.863 112.103 326.059 113.164C327.255 114.235 328.717 115.08 330.444 115.701C332.171 116.33 334.132 116.645 336.326 116.645C338.521 116.645 340.477 116.33 342.195 115.701C343.922 115.08 345.384 114.235 346.58 113.164C347.776 112.103 348.689 110.875 349.319 109.481C349.94 108.087 350.25 106.612 350.25 105.056C350.25 103.491 349.94 102.006 349.319 100.603C348.689 99.2002 347.776 97.9634 346.58 96.893C345.384 95.8317 343.922 94.9862 342.195 94.3566C340.477 93.736 338.521 93.4256 336.326 93.4256C334.132 93.4256 332.171 93.736 330.444 94.3566C328.717 94.9862 327.255 95.8317 326.059 96.893C324.863 97.9634 323.954 99.2002 323.334 100.603C322.704 102.006 322.389 103.491 322.389 105.056ZM370.609 124.484V85.6139H380.364V88.9059C382.801 87.4128 385.176 86.3784 387.487 85.8027C389.808 85.2181 392.075 84.9258 394.287 84.9258C397.39 84.9258 400.237 85.4205 402.828 86.4099C405.418 87.3993 407.635 88.8924 409.479 90.8892C410.9 89.7918 412.303 88.8609 413.689 88.0964C415.074 87.3408 416.459 86.7292 417.844 86.2615C419.229 85.7848 420.632 85.443 422.054 85.2361C423.484 85.0292 424.959 84.9258 426.479 84.9258C429.663 84.9258 432.55 85.3575 435.141 86.221C437.731 87.0935 439.944 88.3842 441.779 90.0932C443.605 91.8111 445.021 93.9473 446.029 96.5018C447.027 99.0562 447.526 102.015 447.526 105.379V124.484H437.799V106.958C437.799 104.826 437.497 102.924 436.895 101.251C436.292 99.5689 435.446 98.1523 434.358 97.001C433.27 95.8407 431.975 94.9592 430.472 94.3566C428.97 93.7539 427.32 93.4526 425.521 93.4526C424.532 93.4526 423.52 93.5471 422.485 93.736C421.451 93.9248 420.448 94.2172 419.477 94.6129C418.496 95.0087 417.579 95.5079 416.724 96.1105C415.87 96.7132 415.123 97.4192 414.485 98.2287V124.484H404.771V106.958C404.771 104.826 404.469 102.924 403.867 101.251C403.255 99.5689 402.409 98.1523 401.33 97.001C400.242 95.8407 398.933 94.9592 397.404 94.3566C395.875 93.7539 394.202 93.4526 392.385 93.4526C391.261 93.4526 390.132 93.5696 388.999 93.8034C387.874 94.0283 386.79 94.3521 385.747 94.7748C384.704 95.1886 383.723 95.6923 382.806 96.2859C381.897 96.8796 381.083 97.5497 380.364 98.2962V124.484H370.609ZM457.928 104.921C457.928 102.285 458.464 99.7668 459.534 97.3653C460.613 94.9547 462.165 92.8275 464.189 90.9836C466.203 89.1397 468.677 87.6691 471.609 86.5718C474.541 85.4744 477.874 84.9258 481.607 84.9258C485.321 84.9258 488.667 85.4789 491.645 86.5853C494.613 87.6916 497.136 89.2117 499.214 91.1455C501.291 93.0794 502.883 95.355 503.99 97.9724C505.096 100.581 505.649 103.378 505.649 106.364C505.649 106.742 505.645 107.142 505.636 107.565C505.627 107.997 505.6 108.388 505.555 108.739H468.789C469.212 109.899 469.891 110.965 470.827 111.936C471.753 112.899 472.922 113.731 474.335 114.432C475.738 115.134 477.361 115.678 479.205 116.065C481.049 116.452 483.091 116.645 485.33 116.645C487.57 116.645 489.801 116.407 492.022 115.93C494.235 115.462 496.353 114.864 498.377 114.136L501.669 121.583C500.392 122.177 499.101 122.698 497.797 123.148C496.493 123.598 495.13 123.971 493.709 124.268C492.297 124.565 490.817 124.79 489.27 124.943C487.723 125.096 486.09 125.172 484.372 125.172C480.001 125.172 476.169 124.646 472.877 123.593C469.585 122.541 466.829 121.102 464.607 119.276C462.394 117.459 460.726 115.318 459.601 112.854C458.486 110.398 457.928 107.754 457.928 104.921ZM468.789 101.129H495.314C494.964 100.05 494.419 99.0472 493.682 98.1208C492.944 97.1854 492.027 96.3714 490.93 95.6788C489.832 94.9862 488.559 94.442 487.111 94.0463C485.663 93.6505 484.071 93.4526 482.335 93.4526C480.491 93.4526 478.809 93.664 477.289 94.0867C475.778 94.5005 474.451 95.0582 473.309 95.7597C472.167 96.4613 471.218 97.2753 470.462 98.2018C469.707 99.1192 469.149 100.095 468.789 101.129ZM521.988 124.484V92.9264H512.597V85.6139H521.988V73.5252H531.742V85.6139H541.133V92.9264H531.742V124.484H521.988ZM548.202 101.952V94.6399H578.411V101.952H548.202ZM587.167 104.921C587.167 102.285 587.707 99.7668 588.786 97.3653C589.856 94.9547 591.403 92.8275 593.427 90.9836C595.451 89.1397 597.929 87.6691 600.861 86.5718C603.784 85.4744 607.117 84.9258 610.859 84.9258C614.564 84.9258 617.906 85.4789 620.883 86.5853C623.86 87.6916 626.383 89.2117 628.452 91.1455C630.53 93.0794 632.122 95.355 633.228 97.9724C634.343 100.581 634.901 103.378 634.901 106.364C634.901 106.742 634.897 107.142 634.888 107.565C634.87 107.997 634.838 108.388 634.793 108.739H598.041C598.455 109.899 599.13 110.965 600.065 111.936C601.001 112.899 602.17 113.731 603.573 114.432C604.976 115.134 606.6 115.678 608.444 116.065C610.287 116.452 612.329 116.645 614.569 116.645C616.809 116.645 619.039 116.407 621.261 115.93C623.482 115.462 625.601 114.864 627.615 114.136L630.907 121.583C629.639 122.177 628.349 122.698 627.035 123.148C625.731 123.598 624.373 123.971 622.961 124.268C621.54 124.565 620.056 124.79 618.508 124.943C616.961 125.096 615.333 125.172 613.624 125.172C609.253 125.172 605.421 124.646 602.129 123.593C598.828 122.541 596.072 121.102 593.859 119.276C591.637 117.459 589.969 115.318 588.853 112.854C587.729 110.398 587.167 107.754 587.167 104.921ZM598.041 101.129H624.553C624.202 100.05 623.658 99.0472 622.92 98.1208C622.192 97.1854 621.274 96.3714 620.168 95.6788C619.071 94.9862 617.798 94.442 616.35 94.0463C614.902 93.6505 613.31 93.4526 611.574 93.4526C609.73 93.4526 608.052 93.664 606.541 94.0867C605.021 94.5005 603.69 95.0582 602.548 95.7597C601.405 96.4613 600.456 97.2753 599.701 98.2018C598.945 99.1192 598.392 100.095 598.041 101.129ZM658.417 124.484L640.001 85.5869H651.294L661.413 108.968L664.043 115.525L666.674 108.968L676.793 85.5869H688.086L669.683 124.484H658.417ZM693.064 104.921C693.064 102.285 693.6 99.7668 694.67 97.3653C695.749 94.9547 697.301 92.8275 699.325 90.9836C701.34 89.1397 703.813 87.6691 706.745 86.5718C709.677 85.4744 713.01 84.9258 716.743 84.9258C720.457 84.9258 723.803 85.4789 726.781 86.5853C729.749 87.6916 732.272 89.2117 734.35 91.1455C736.427 93.0794 738.019 95.355 739.126 97.9724C740.232 100.581 740.785 103.378 740.785 106.364C740.785 106.742 740.781 107.142 740.772 107.565C740.763 107.997 740.736 108.388 740.691 108.739H703.925C704.348 109.899 705.027 110.965 705.963 111.936C706.889 112.899 708.058 113.731 709.471 114.432C710.874 115.134 712.497 115.678 714.341 116.065C716.185 116.452 718.227 116.645 720.466 116.645C722.706 116.645 724.937 116.407 727.158 115.93C729.371 115.462 731.489 114.864 733.513 114.136L736.805 121.583C735.528 122.177 734.237 122.698 732.933 123.148C731.629 123.598 730.266 123.971 728.845 124.268C727.433 124.565 725.953 124.79 724.406 124.943C722.859 125.096 721.226 125.172 719.509 125.172C715.137 125.172 711.305 124.646 708.013 123.593C704.721 122.541 701.965 121.102 699.743 119.276C697.53 117.459 695.862 115.318 694.737 112.854C693.622 110.398 693.064 107.754 693.064 104.921ZM703.925 101.129H730.45C730.1 100.05 729.555 99.0472 728.818 98.1208C728.08 97.1854 727.163 96.3714 726.066 95.6788C724.968 94.9862 723.695 94.442 722.247 94.0463C720.799 93.6505 719.207 93.4526 717.471 93.4526C715.627 93.4526 713.945 93.664 712.425 94.0867C710.914 94.5005 709.587 95.0582 708.445 95.7597C707.303 96.4613 706.354 97.2753 705.598 98.2018C704.834 99.1192 704.276 100.095 703.925 101.129ZM751.255 124.484V85.6139H761.009V88.9059C763.6 87.4398 766.078 86.4099 768.443 85.8162C770.8 85.2226 773.112 84.9258 775.378 84.9258C778.338 84.9258 781.081 85.3575 783.608 86.221C786.136 87.0935 788.321 88.3842 790.165 90.0932C792.009 91.8111 793.453 93.9473 794.496 96.5018C795.54 99.0562 796.061 102.015 796.061 105.379V124.484H786.347V106.958C786.347 104.826 786.041 102.924 785.43 101.251C784.827 99.5689 783.964 98.1523 782.839 97.001C781.706 95.8407 780.33 94.9592 778.711 94.3566C777.101 93.7539 775.297 93.4526 773.301 93.4526C772.248 93.4526 771.164 93.5651 770.049 93.7899C768.943 94.0058 767.859 94.3161 766.797 94.7209C765.727 95.1256 764.697 95.6293 763.708 96.2319C762.718 96.8436 761.819 97.5317 761.009 98.2962V124.484H751.255ZM813.871 124.484V92.9264H804.494V85.6139H813.871V73.5252H823.625V85.6139H833.016V92.9264H823.625V124.484H813.871ZM841.407 124.484V69.8419H851.162V89.2701C852.017 88.6765 853.024 88.1188 854.184 87.5972C855.354 87.0665 856.608 86.6033 857.948 86.2075C859.289 85.8117 860.669 85.5014 862.09 85.2766C863.521 85.0427 864.951 84.9258 866.381 84.9258C869.673 84.9258 872.695 85.407 875.447 86.3694C878.209 87.3408 880.574 88.7035 882.544 90.4574C884.523 92.2114 886.065 94.3161 887.172 96.7716C888.287 99.2181 888.845 101.921 888.845 104.88C888.845 107.983 888.26 110.781 887.091 113.272C885.931 115.764 884.325 117.891 882.274 119.654C880.214 121.426 877.777 122.788 874.962 123.742C872.137 124.695 869.079 125.172 865.787 125.172C864.384 125.172 862.994 125.087 861.618 124.916C860.242 124.736 858.924 124.493 857.665 124.187C856.406 123.881 855.219 123.512 854.103 123.081C852.997 122.658 852.017 122.19 851.162 121.678V124.484H841.407ZM851.162 98.7954V112.26C852.151 113.052 853.195 113.722 854.292 114.271C855.389 114.819 856.509 115.269 857.652 115.62C858.794 115.971 859.945 116.231 861.106 116.402C862.266 116.564 863.399 116.645 864.506 116.645C866.745 116.645 868.737 116.344 870.482 115.741C872.227 115.139 873.698 114.307 874.894 113.245C876.091 112.193 877.008 110.956 877.647 109.535C878.276 108.105 878.591 106.553 878.591 104.88C878.591 103.324 878.281 101.854 877.66 100.468C877.03 99.0832 876.131 97.869 874.962 96.8256C873.783 95.7822 872.367 94.9592 870.712 94.3566C869.048 93.7539 867.186 93.4526 865.126 93.4526C863.804 93.4526 862.486 93.5785 861.173 93.8304C859.851 94.0822 858.583 94.442 857.368 94.9097C856.145 95.3685 855.003 95.9261 853.941 96.5827C852.88 97.2393 851.954 97.9769 851.162 98.7954ZM897.857 105.933V85.5869H907.585V104.556C907.585 106.355 907.783 107.997 908.179 109.481C908.574 110.965 909.249 112.233 910.202 113.286C911.156 114.338 912.429 115.157 914.021 115.741C915.613 116.326 917.596 116.618 919.971 116.618C921.086 116.618 922.219 116.497 923.37 116.254C924.522 116.011 925.628 115.674 926.689 115.242C927.742 114.819 928.722 114.311 929.631 113.717C930.539 113.124 931.326 112.476 931.992 111.775V85.5869H941.733V124.484H931.992V121.151C929.599 122.582 927.193 123.602 924.774 124.214C922.363 124.835 920.069 125.145 917.893 125.145C914.331 125.145 911.282 124.718 908.745 123.863C906.209 123 904.136 121.754 902.526 120.126C900.907 118.489 899.724 116.479 898.977 114.095C898.231 111.712 897.857 108.991 897.857 105.933ZM951.447 119.937L955.67 112.557C958.305 114.14 961.202 115.305 964.359 116.051C967.525 116.798 970.767 117.171 974.086 117.171C976.326 117.171 978.192 117.018 979.685 116.713C981.179 116.407 982.375 116.011 983.274 115.525C984.174 115.04 984.808 114.491 985.177 113.879C985.554 113.268 985.743 112.643 985.743 112.004C985.743 111.077 985.343 110.286 984.542 109.629C983.742 108.973 982.42 108.644 980.576 108.644C979.712 108.644 978.786 108.698 977.797 108.806C976.816 108.914 975.782 109.031 974.693 109.157C973.605 109.274 972.472 109.387 971.294 109.494C970.124 109.602 968.932 109.656 967.718 109.656C965.083 109.656 962.839 109.373 960.986 108.806C959.133 108.231 957.622 107.453 956.452 106.472C955.292 105.483 954.447 104.314 953.916 102.964C953.394 101.606 953.133 100.149 953.133 98.593C953.133 96.6142 953.592 94.7928 954.51 93.1288C955.436 91.4558 956.754 90.0122 958.463 88.7979C960.181 87.5747 962.254 86.6257 964.682 85.9512C967.102 85.2676 969.805 84.9258 972.791 84.9258C974.356 84.9258 975.989 85.0202 977.689 85.2091C979.389 85.389 981.062 85.6363 982.708 85.9512C984.354 86.257 985.937 86.6123 987.457 87.017C988.968 87.4218 990.308 87.8535 991.477 88.3122L988.415 95.8946C985.932 94.9682 983.454 94.2397 980.981 93.709C978.507 93.1693 975.966 92.8995 973.358 92.8995C971.532 92.8995 969.989 93.0344 968.73 93.3042C967.462 93.583 966.436 93.9473 965.654 94.3971C964.862 94.8468 964.282 95.364 963.913 95.9486C963.554 96.5243 963.374 97.1314 963.374 97.77C963.374 98.2287 963.468 98.647 963.657 99.0248C963.846 99.3935 964.152 99.7173 964.575 99.9962C965.006 100.266 965.568 100.473 966.261 100.617C966.954 100.761 967.804 100.833 968.811 100.833C969.737 100.833 970.713 100.779 971.739 100.671C972.773 100.563 973.852 100.446 974.977 100.32C976.092 100.203 977.248 100.091 978.444 99.9827C979.64 99.8658 980.864 99.8073 982.114 99.8073C984.444 99.8073 986.481 100.082 988.226 100.63C989.971 101.179 991.414 101.948 992.557 102.937C993.699 103.927 994.558 105.092 995.134 106.432C995.7 107.772 995.984 109.234 995.984 110.817C995.984 112.858 995.511 114.756 994.567 116.51C993.623 118.264 992.219 119.784 990.357 121.07C988.487 122.357 986.162 123.364 983.382 124.093C980.603 124.812 977.392 125.172 973.749 125.172C971.509 125.172 969.346 125.037 967.259 124.767C965.173 124.488 963.185 124.115 961.296 123.647C959.407 123.171 957.635 122.613 955.98 121.974C954.325 121.345 952.814 120.666 951.447 119.937Z" fill="black"/>
</g>
</g>
<g clip-path="url(#clip4_1_54)">
<g clip-path="url(#clip5_1_54)">
<path d="M280.6 140.07V155.32C280.6 158.522 279.769 160.953 278.107 162.615C276.445 164.277 274.148 165.108 271.215 165.108C268.331 165.108 266.059 164.294 264.397 162.667C262.735 161.044 261.904 158.693 261.904 155.613V140.07H265.68V155.577C265.68 157.679 266.188 159.211 267.205 160.174C268.216 161.142 269.553 161.625 271.215 161.625C274.954 161.625 276.824 159.548 276.824 155.394V140.07H280.6ZM301.092 152.204V164.778H297.499V153.047C297.499 151.752 297.174 150.762 296.524 150.078C295.879 149.394 295.019 149.052 293.943 149.052C292.673 149.052 291.585 149.545 290.681 150.533C289.777 151.525 289.324 152.913 289.324 154.697V164.778H285.732V146.192H289.324V149.382C290.424 147.084 292.355 145.936 295.116 145.936C296.949 145.936 298.403 146.498 299.479 147.622C300.554 148.746 301.092 150.274 301.092 152.204ZM309.706 146.192V164.778H306.077V146.192H309.706ZM310.146 140.51C310.146 141.121 309.926 141.647 309.487 142.087C309.047 142.526 308.509 142.746 307.874 142.746C307.238 142.746 306.705 142.531 306.275 142.101C305.85 141.676 305.637 141.146 305.637 140.51C305.637 139.875 305.85 139.337 306.275 138.897C306.705 138.457 307.238 138.237 307.874 138.237C308.509 138.237 309.047 138.457 309.487 138.897C309.926 139.337 310.146 139.875 310.146 140.51ZM330.521 146.192L323.776 164.778H319.67L313.072 146.192H316.848L319.377 154.037C319.964 155.846 320.46 157.41 320.865 158.729C321.266 160.049 321.515 160.917 321.613 161.332L321.76 161.955C321.98 160.758 322.786 158.118 324.179 154.037L326.782 146.192H330.521ZM347.604 160.562V163.788C346.235 164.57 344.427 164.961 342.179 164.961C339.295 164.961 336.997 164.094 335.287 162.359C333.576 160.623 332.721 158.351 332.721 155.54C332.721 152.559 333.503 150.217 335.067 148.516C336.631 146.82 338.623 145.972 341.042 145.972C343.413 145.972 345.295 146.71 346.688 148.186C348.081 149.667 348.777 151.801 348.777 154.587C348.777 155.345 348.704 156.139 348.557 156.97H336.35C336.594 158.583 337.279 159.817 338.403 160.672C339.527 161.528 340.944 161.955 342.655 161.955C344.635 161.955 346.284 161.491 347.604 160.562ZM341.115 148.942C339.893 148.942 338.843 149.386 337.963 150.276C337.083 151.17 336.533 152.461 336.313 154.147H345.295V153.487C345.246 152.094 344.867 150.987 344.158 150.166C343.449 149.35 342.435 148.942 341.115 148.942ZM356.585 154.88V164.778H352.993V146.192H356.585V149.455C357.49 147.158 359.115 146.009 361.461 146.009C361.803 146.009 362.182 146.046 362.597 146.119V149.638C362.084 149.418 361.51 149.308 360.874 149.308C359.628 149.308 358.602 149.858 357.795 150.958C356.989 152.058 356.585 153.365 356.585 154.88ZM377.041 159.646C377.041 161.308 376.454 162.608 375.281 163.546C374.108 164.49 372.52 164.961 370.516 164.961C368.316 164.961 366.483 164.595 365.017 163.862V160.452C366.727 161.503 368.499 162.029 370.332 162.029C371.285 162.029 372.023 161.833 372.546 161.442C373.074 161.051 373.338 160.538 373.338 159.903C373.338 159.365 373.13 158.881 372.715 158.451C372.3 158.026 371.877 157.708 371.447 157.498C371.021 157.292 370.296 156.97 369.269 156.53C366.361 155.332 364.907 153.573 364.907 151.251C364.907 149.614 365.518 148.331 366.74 147.402C367.962 146.473 369.489 146.009 371.322 146.009C373.326 146.009 374.89 146.278 376.014 146.815V150.078C374.817 149.369 373.277 149.015 371.395 149.015C370.54 149.015 369.861 149.21 369.357 149.601C368.859 149.993 368.609 150.506 368.609 151.141C368.609 151.312 368.626 151.476 368.661 151.632C368.7 151.794 368.768 151.953 368.866 152.109C368.964 152.27 369.054 152.405 369.137 152.512C369.225 152.625 369.367 152.742 369.562 152.864C369.758 152.986 369.909 153.089 370.017 153.172C370.129 153.26 370.313 153.365 370.567 153.487C370.826 153.609 371.017 153.7 371.139 153.759C371.261 153.822 371.474 153.92 371.777 154.052C372.084 154.189 372.3 154.282 372.422 154.33C373.864 154.966 374.993 155.679 375.809 156.471C376.63 157.268 377.041 158.326 377.041 159.646ZM386.785 162.102C387.958 162.102 388.881 161.777 389.556 161.127C390.226 160.482 390.56 159.634 390.56 158.583V156.493H387.774C386.406 156.493 385.374 156.762 384.68 157.3C383.981 157.837 383.632 158.522 383.632 159.353C383.632 160.208 383.901 160.88 384.438 161.369C384.976 161.858 385.758 162.102 386.785 162.102ZM390.67 164.778V162.579C389.717 164.143 388.043 164.925 385.648 164.925C383.889 164.925 382.478 164.416 381.418 163.4C380.352 162.388 379.819 161.1 379.819 159.536C379.819 157.752 380.491 156.364 381.836 155.372C383.18 154.384 385.062 153.891 387.481 153.891H390.56V152.827C390.56 151.557 390.255 150.596 389.644 149.946C389.033 149.301 388.019 148.978 386.601 148.978C384.622 148.978 382.825 149.528 381.212 150.628V147.145C382.654 146.314 384.561 145.899 386.931 145.899C391.795 145.899 394.226 148.257 394.226 152.974V164.778H390.67ZM402.841 138.861V164.778H399.212V138.861H402.841ZM430.995 161.625V164.778H416.734V140.07H430.811V143.223H420.51V150.848H429.638V154.001H420.51V161.625H430.995ZM451.039 146.192L444.294 164.778H440.189L433.59 146.192H437.366L439.895 154.037C440.482 155.846 440.978 157.41 441.384 158.729C441.784 160.049 442.034 160.917 442.131 161.332L442.278 161.955C442.498 160.758 443.304 158.118 444.698 154.037L447.3 146.192H451.039ZM468.122 160.562V163.788C466.754 164.57 464.945 164.961 462.697 164.961C459.813 164.961 457.516 164.094 455.805 162.359C454.094 160.623 453.239 158.351 453.239 155.54C453.239 152.559 454.021 150.217 455.585 148.516C457.149 146.82 459.141 145.972 461.56 145.972C463.931 145.972 465.813 146.71 467.206 148.186C468.599 149.667 469.295 151.801 469.295 154.587C469.295 155.345 469.222 156.139 469.075 156.97H456.868C457.113 158.583 457.797 159.817 458.921 160.672C460.045 161.528 461.463 161.955 463.173 161.955C465.153 161.955 466.803 161.491 468.122 160.562ZM461.634 148.942C460.412 148.942 459.361 149.386 458.481 150.276C457.601 151.17 457.051 152.461 456.831 154.147H465.813V153.487C465.764 152.094 465.385 150.987 464.676 150.166C463.968 149.35 462.953 148.942 461.634 148.942ZM488.871 152.204V164.778H485.278V153.047C485.278 151.752 484.953 150.762 484.303 150.078C483.658 149.394 482.798 149.052 481.723 149.052C480.452 149.052 479.364 149.545 478.46 150.533C477.556 151.525 477.104 152.913 477.104 154.697V164.778H473.511V146.192H477.104V149.382C478.203 147.084 480.134 145.936 482.896 145.936C484.729 145.936 486.183 146.498 487.258 147.622C488.333 148.746 488.871 150.274 488.871 152.204ZM503.461 161.076V164.302C502.655 164.741 501.665 164.961 500.492 164.961C496.655 164.961 494.736 163.018 494.736 159.133V148.978H491.84V146.192H494.736V141.647H498.365V146.192H503.241V148.978H498.365V159.206C498.365 160.99 499.221 161.882 500.932 161.882C501.934 161.882 502.777 161.613 503.461 161.076ZM511.115 161.955V164.778H507.486V138.861H511.115V149.015C512.435 146.962 514.305 145.936 516.724 145.936C519.07 145.936 520.989 146.815 522.479 148.575C523.97 150.335 524.716 152.669 524.716 155.577C524.716 158.192 524.007 160.421 522.589 162.263C521.172 164.111 519.229 165.035 516.761 165.035C514.292 165.035 512.411 164.008 511.115 161.955ZM511.115 155.357C511.115 157.556 511.604 159.194 512.582 160.269C513.559 161.344 514.757 161.882 516.174 161.882C517.543 161.882 518.691 161.3 519.62 160.137C520.549 158.979 521.013 157.483 521.013 155.65C521.013 153.548 520.549 151.931 519.62 150.797C518.691 149.658 517.506 149.088 516.064 149.088C514.793 149.088 513.652 149.601 512.64 150.628C511.624 151.654 511.115 153.231 511.115 155.357ZM543.888 146.192V164.778H540.295V161.589C539.318 163.862 537.387 164.998 534.503 164.998C532.67 164.998 531.216 164.453 530.141 163.363C529.066 162.278 528.528 160.782 528.528 158.876V146.192H532.157V157.996C532.157 159.267 532.47 160.237 533.096 160.907C533.716 161.581 534.577 161.919 535.676 161.919C537.069 161.919 538.189 161.43 539.034 160.452C539.875 159.475 540.295 158.094 540.295 156.31V146.192H543.888ZM560.568 159.646C560.568 161.308 559.981 162.608 558.808 163.546C557.635 164.49 556.046 164.961 554.042 164.961C551.843 164.961 550.01 164.595 548.544 163.862V160.452C550.254 161.503 552.026 162.029 553.859 162.029C554.812 162.029 555.55 161.833 556.073 161.442C556.601 161.051 556.865 160.538 556.865 159.903C556.865 159.365 556.657 158.881 556.242 158.451C555.826 158.026 555.404 157.708 554.973 157.498C554.548 157.292 553.822 156.97 552.796 156.53C549.888 155.332 548.434 153.573 548.434 151.251C548.434 149.614 549.045 148.331 550.266 147.402C551.488 146.473 553.016 146.009 554.849 146.009C556.853 146.009 558.417 146.278 559.541 146.815V150.078C558.344 149.369 556.804 149.015 554.922 149.015C554.067 149.015 553.387 149.21 552.884 149.601C552.385 149.993 552.136 150.506 552.136 151.141C552.136 151.312 552.153 151.476 552.187 151.632C552.227 151.794 552.295 151.953 552.393 152.109C552.49 152.27 552.581 152.405 552.664 152.512C552.752 152.625 552.894 152.742 553.089 152.864C553.285 152.986 553.436 153.089 553.544 153.172C553.656 153.26 553.839 153.365 554.094 153.487C554.353 153.609 554.543 153.7 554.666 153.759C554.788 153.822 555 153.92 555.303 154.052C555.611 154.189 555.826 154.282 555.949 154.33C557.39 154.966 558.52 155.679 559.336 156.471C560.157 157.268 560.568 158.326 560.568 159.646ZM581.895 146.192V148.978H577.973V164.778H574.38V148.978H571.411V146.192H574.38V144.763C574.38 142.832 574.901 141.312 575.942 140.202C576.978 139.088 578.437 138.531 580.319 138.531C581.003 138.531 581.7 138.628 582.409 138.824V141.977C581.847 141.732 581.26 141.61 580.649 141.61C578.865 141.61 577.973 142.673 577.973 144.799V146.192H581.895ZM599.418 148.626C600.958 150.425 601.728 152.717 601.728 155.504C601.728 158.29 600.941 160.587 599.367 162.395C597.788 164.204 595.618 165.108 592.856 165.108C590.119 165.108 587.968 164.216 586.404 162.432C584.84 160.648 584.058 158.387 584.058 155.65C584.058 152.864 584.865 150.547 586.478 148.7C588.091 146.857 590.217 145.936 592.856 145.936C595.691 145.936 597.878 146.833 599.418 148.626ZM587.797 155.54C587.797 157.373 588.25 158.918 589.154 160.174C590.058 161.435 591.292 162.065 592.856 162.065C594.518 162.065 595.784 161.454 596.654 160.232C597.519 159.01 597.952 157.459 597.952 155.577C597.952 153.646 597.536 152.062 596.705 150.826C595.874 149.594 594.579 148.978 592.82 148.978C591.231 148.978 589.997 149.606 589.117 150.863C588.237 152.124 587.797 153.683 587.797 155.54ZM609.353 154.88V164.778H605.76V146.192H609.353V149.455C610.257 147.158 611.882 146.009 614.228 146.009C614.57 146.009 614.949 146.046 615.365 146.119V149.638C614.851 149.418 614.277 149.308 613.642 149.308C612.395 149.308 611.369 149.858 610.562 150.958C609.756 152.058 609.353 153.365 609.353 154.88ZM633.87 143.223H630.644V152.241H634.053C635.617 152.241 636.802 151.83 637.609 151.009C638.415 150.193 638.819 149.1 638.819 147.732C638.819 144.726 637.169 143.223 633.87 143.223ZM630.644 155.394V164.778H626.868V140.07H633.76C636.595 140.07 638.782 140.759 640.322 142.138C641.861 143.521 642.631 145.398 642.631 147.769C642.607 149.504 642.167 150.975 641.311 152.182C640.456 153.394 639.271 154.269 637.756 154.807L644.207 164.778H639.698L633.906 155.394H630.644ZM662.683 146.192V164.778H659.091V161.589C658.113 163.862 656.183 164.998 653.299 164.998C651.466 164.998 650.012 164.453 648.936 163.363C647.861 162.278 647.323 160.782 647.323 158.876V146.192H650.953V157.996C650.953 159.267 651.263 160.237 651.884 160.907C652.509 161.581 653.372 161.919 654.472 161.919C655.865 161.919 656.982 161.43 657.822 160.452C658.668 159.475 659.091 158.094 659.091 156.31V146.192H662.683ZM679.363 159.646C679.363 161.308 678.776 162.608 677.603 163.546C676.43 164.49 674.842 164.961 672.838 164.961C670.638 164.961 668.805 164.595 667.339 163.862V160.452C669.05 161.503 670.821 162.029 672.654 162.029C673.607 162.029 674.346 161.833 674.869 161.442C675.396 161.051 675.66 160.538 675.66 159.903C675.66 159.365 675.453 158.881 675.037 158.451C674.622 158.026 674.199 157.708 673.769 157.498C673.344 157.292 672.618 156.97 671.591 156.53C668.683 155.332 667.229 153.573 667.229 151.251C667.229 149.614 667.84 148.331 669.062 147.402C670.284 146.473 671.811 146.009 673.644 146.009C675.648 146.009 677.212 146.278 678.336 146.815V150.078C677.139 149.369 675.599 149.015 673.717 149.015C672.862 149.015 672.183 149.21 671.679 149.601C671.181 149.993 670.931 150.506 670.931 151.141C670.931 151.312 670.949 151.476 670.983 151.632C671.022 151.794 671.09 151.953 671.188 152.109C671.286 152.27 671.376 152.405 671.459 152.512C671.547 152.625 671.689 152.742 671.885 152.864C672.08 152.986 672.232 153.089 672.339 153.172C672.451 153.26 672.635 153.365 672.889 153.487C673.148 153.609 673.339 153.7 673.461 153.759C673.583 153.822 673.796 153.92 674.099 154.052C674.407 154.189 674.622 154.282 674.744 154.33C676.186 154.966 677.315 155.679 678.131 156.471C678.952 157.268 679.363 158.326 679.363 159.646ZM692.846 161.076V164.302C692.039 164.741 691.05 164.961 689.877 164.961C686.04 164.961 684.121 163.018 684.121 159.133V148.978H681.225V146.192H684.121V141.647H687.75V146.192H692.626V148.978H687.75V159.206C687.75 160.99 688.606 161.882 690.316 161.882C691.318 161.882 692.162 161.613 692.846 161.076Z" fill="black"/>
</g>
</g>
</g>
</g>
<g clip-path="url(#clip6_1_54)">
<g clip-path="url(#clip7_1_54)">
<path d="M228.287 61.3967C227.002 60.1312 224.913 60.1312 223.628 61.3967L90.7601 191.972C84.5445 198.078 76.2846 201.441 67.4936 201.441C58.7051 201.441 50.4426 198.08 44.2296 191.972C38.0165 185.864 34.5913 177.744 34.5913 169.11C34.5913 160.471 38.0139 152.349 44.2296 146.24L109.516 82.0869C110.804 80.8215 110.804 78.7718 109.516 77.5063C108.228 76.2409 106.142 76.2409 104.855 77.5063L39.5685 141.657C32.1092 148.993 28 158.74 28 169.108C28 179.473 32.1066 189.22 39.5685 196.55C47.0278 203.881 56.9459 207.916 67.4936 207.916C78.0438 207.916 87.9619 203.881 95.4186 196.55L228.287 65.9772C229.574 64.7118 229.574 62.6621 228.287 61.3967Z" fill="#0191DA"/>
<path d="M107.679 110.22C108.324 110.854 109.166 111.169 110.008 111.169C110.853 111.169 111.695 110.854 112.337 110.22L164.278 59.1764C165.565 57.911 165.565 55.8613 164.278 54.5984C162.99 53.3329 160.904 53.3329 159.617 54.5984L107.679 105.639C106.391 106.904 106.391 108.954 107.679 110.22Z" fill="#0191DA"/>
<path d="M154.883 101.476C155.526 102.11 156.37 102.426 157.212 102.426C158.054 102.426 158.896 102.107 159.542 101.476L207.316 54.5297C208.603 53.2642 208.603 51.2145 207.316 49.9491C206.028 48.6836 203.942 48.6836 202.655 49.9491L154.883 96.898C153.595 98.1609 153.595 100.211 154.883 101.476Z" fill="#0191DA"/>
<path d="M69.2761 143.063C62.6744 143.063 56.4665 145.589 51.8003 150.179C47.1314 154.765 44.5612 160.863 44.5612 167.348C44.5612 173.836 47.134 179.936 51.8003 184.527C56.4665 189.115 62.6744 191.644 69.2761 191.644C75.8778 191.644 82.0857 189.115 86.7545 184.527C91.4234 179.936 93.9936 173.836 93.9936 167.348C93.9936 160.863 91.4208 154.765 86.7545 150.179C82.0857 145.589 75.8804 143.063 69.2761 143.063ZM82.096 179.947C78.6734 183.31 74.1186 185.164 69.2787 185.164C64.4388 185.164 59.8866 183.31 56.464 179.947C53.0413 176.581 51.1551 172.109 51.1551 167.348C51.1551 162.592 53.0413 158.121 56.464 154.76C59.8866 151.394 64.4388 149.54 69.2787 149.54C74.1211 149.54 78.6734 151.394 82.096 154.76C85.5187 158.121 87.4048 162.592 87.4048 167.348C87.4048 172.109 85.5187 176.581 82.096 179.947Z" fill="#0191DA"/>
<path d="M67.7837 165.482C70.2163 165.482 72.1883 163.544 72.1883 161.153C72.1883 158.763 70.2163 156.825 67.7837 156.825C65.3512 156.825 63.3792 158.763 63.3792 161.153C63.3792 163.544 65.3512 165.482 67.7837 165.482Z" fill="#0191DA"/>
<path d="M60.853 172.328C61.8689 172.328 62.6925 171.519 62.6925 170.521C62.6925 169.522 61.8689 168.713 60.853 168.713C59.837 168.713 59.0134 169.522 59.0134 170.521C59.0134 171.519 59.837 172.328 60.853 172.328Z" fill="#0191DA"/>
<path d="M78.4143 162.928C77.694 163.636 77.694 164.784 78.4143 165.492C79.1294 166.192 80.2953 166.192 81.0156 165.484C81.7333 164.784 81.7333 163.636 81.0156 162.936C80.2927 162.228 79.1294 162.228 78.4143 162.928Z" fill="#0191DA"/>
<path d="M73.5019 177.235C74.5179 177.235 75.3415 176.426 75.3415 175.427C75.3415 174.429 74.5179 173.619 73.5019 173.619C72.486 173.619 71.6624 174.429 71.6624 175.427C71.6624 176.426 72.486 177.235 73.5019 177.235Z" fill="#0191DA"/>
<path d="M141.664 120.277C140.454 121.471 140.454 123.401 141.664 124.59C142.874 125.779 144.838 125.779 146.051 124.585C147.261 123.401 147.261 121.471 146.051 120.28C144.838 119.085 142.874 119.085 141.664 120.277Z" fill="#0191DA"/>
<path d="M215.324 93.7077C216.34 93.7077 217.164 92.8983 217.164 91.8999C217.164 90.9015 216.34 90.0921 215.324 90.0921C214.308 90.0921 213.485 90.9015 213.485 91.8999C213.485 92.8983 214.308 93.7077 215.324 93.7077Z" fill="#0191DA"/>
<path d="M184.311 60.671C185.327 60.671 186.15 59.8617 186.15 58.8632C186.15 57.8648 185.327 57.0555 184.311 57.0555C183.295 57.0555 182.471 57.8648 182.471 58.8632C182.471 59.8617 183.295 60.671 184.311 60.671Z" fill="#0191DA"/>
<path d="M138.822 103.531C139.838 103.531 140.661 102.721 140.661 101.723C140.661 100.725 139.838 99.9152 138.822 99.9152C137.806 99.9152 136.982 100.725 136.982 101.723C136.982 102.721 137.806 103.531 138.822 103.531Z" fill="#0191DA"/>
<path d="M126.66 75.0544C127.676 75.0544 128.5 74.245 128.5 73.2466C128.5 72.2482 127.676 71.4388 126.66 71.4388C125.644 71.4388 124.82 72.2482 124.82 73.2466C124.82 74.245 125.644 75.0544 126.66 75.0544Z" fill="#0191DA"/>
<path d="M92.3173 118.999C93.4573 117.878 93.4573 116.063 92.3173 114.945C91.1799 113.825 89.3248 113.825 88.1873 114.94C87.0447 116.066 87.0447 117.881 88.1873 119.001C89.3273 120.124 91.1747 120.119 92.3173 118.999Z" fill="#0191DA"/>
<path d="M99.2195 152.119C98.0769 153.237 98.0769 155.06 99.2195 156.181C100.357 157.298 102.207 157.298 103.349 156.173C104.487 155.06 104.487 153.24 103.349 152.119C102.209 150.999 100.357 150.999 99.2195 152.119Z" fill="#0191DA"/>
<path d="M51.5697 120.175C52.7071 119.062 52.7123 117.242 51.5697 116.122C50.4297 115.001 48.5798 115.001 47.4397 116.122C46.2971 117.242 46.2997 119.062 47.4397 120.183C48.5798 121.301 50.4271 121.301 51.5697 120.175Z" fill="#0191DA"/>
<path d="M178.435 120.035C177.295 121.155 177.297 122.976 178.435 124.096C179.575 125.214 181.422 125.214 182.565 124.091C183.705 122.976 183.705 121.155 182.565 120.035C181.425 118.917 179.569 118.917 178.435 120.035Z" fill="#0191DA"/>
</g>
</g>
<defs>
<clipPath id="clip0_1_54">
<rect width="734.105" height="95.2684" fill="white" transform="translate(261.878 69.8396)"/>
</clipPath>
<clipPath id="clip1_1_54">
<rect width="734.105" height="95.2684" fill="white" transform="translate(261.878 69.8396)"/>
</clipPath>
<clipPath id="clip2_1_54">
<rect width="734.105" height="55.3346" fill="white" transform="translate(261.878 69.8396)"/>
</clipPath>
<clipPath id="clip3_1_54">
<rect width="734.105" height="55.3346" fill="white" transform="translate(261.878 69.8396)"/>
</clipPath>
<clipPath id="clip4_1_54">
<rect width="430.993" height="26.8706" fill="white" transform="translate(261.878 138.237)"/>
</clipPath>
<clipPath id="clip5_1_54">
<rect width="430.993" height="26.8706" fill="white" transform="translate(261.878 138.237)"/>
</clipPath>
<clipPath id="clip6_1_54">
<rect width="201.252" height="158.916" fill="white" transform="translate(28 49)"/>
</clipPath>
<clipPath id="clip7_1_54">
<rect width="201.252" height="158.916" fill="white" transform="translate(28 49)"/>
</clipPath>
</defs>
</svg>
